<svg width="27" height="19" viewBox="0 0 27 19" fill="none" xmlns="http://www.w3.org/2000/svg">
<path d="M21.3968 6.69272C21.3968 6.33801 21.2559 5.99782 21.005 5.747C20.7542 5.49618 20.414 5.35527 20.0593 5.35527H4.55828L7.63441 2.29251C7.88626 2.04067 8.02775 1.69909 8.02775 1.34292C8.02775 0.986757 7.88626 0.64518 7.63441 0.393333C7.38257 0.141486 7.04099 2.65364e-09 6.68482 0C6.32866 -2.65364e-09 5.98708 0.141486 5.73524 0.393333L0.385435 5.74313C0.199853 5.93121 0.0741382 6.17004 0.0241521 6.42949C-0.0258339 6.68894 0.00214914 6.95739 0.10457 7.20095C0.204906 7.4452 0.375294 7.65428 0.594262 7.80184C0.81323 7.94941 1.07098 8.02885 1.33502 8.03017H20.0593C20.414 8.03017 20.7542 7.88926 21.005 7.63844C21.2559 7.38762 21.3968 7.04744 21.3968 6.69272ZM26.6396 11.5343C26.5392 11.29 26.3689 11.081 26.1499 10.9334C25.9309 10.7858 25.6732 10.7064 25.4091 10.7051H6.68482C6.33011 10.7051 5.98993 10.846 5.73911 11.0968C5.48828 11.3476 5.34737 11.6878 5.34737 12.0425C5.34737 12.3972 5.48828 12.7374 5.73911 12.9882C5.98993 13.2391 6.33011 13.38 6.68482 13.38H22.1859L19.1097 16.4427C18.9844 16.5671 18.8849 16.715 18.817 16.878C18.7491 17.0409 18.7141 17.2158 18.7141 17.3923C18.7141 17.5689 18.7491 17.7437 18.817 17.9067C18.8849 18.0697 18.9844 18.2176 19.1097 18.3419C19.2341 18.4673 19.382 18.5668 19.545 18.6347C19.708 18.7026 19.8828 18.7375 20.0593 18.7375C20.2359 18.7375 20.4107 18.7026 20.5737 18.6347C20.7367 18.5668 20.8846 18.4673 21.0089 18.3419L26.3587 12.9921C26.5443 12.804 26.67 12.5652 26.72 12.3057C26.77 12.0463 26.742 11.7779 26.6396 11.5343Z"/>
</svg>
