<svg width="199" height="162" viewBox="0 0 199 162" fill="none" xmlns="http://www.w3.org/2000/svg">
<path d="M169.15 0H29.85C21.9333 0 14.3408 2.56017 8.74286 7.11731C3.1449 11.6744 0 17.8552 0 24.3V137.7C0 144.145 3.1449 150.326 8.74286 154.883C14.3408 159.44 21.9333 162 29.85 162H169.15C170.787 161.981 172.418 161.846 174.025 161.595L177.011 161.028H177.707H178.204L181.886 159.894L183.179 159.327C184.174 158.841 185.269 158.436 186.264 157.869C187.593 157.073 188.856 156.207 190.045 155.277L190.742 154.548C191.718 153.742 192.617 152.876 193.428 151.956L194.324 150.903C195.018 150.001 195.618 149.053 196.114 148.068C196.387 147.679 196.62 147.273 196.811 146.853C197.309 145.881 197.607 144.828 198.005 143.775V142.56C198.569 140.977 198.903 139.346 199 137.7V24.3C199 17.8552 195.855 11.6744 190.257 7.11731C184.659 2.56017 177.067 0 169.15 0ZM29.85 145.8C27.2111 145.8 24.6803 144.947 22.8143 143.428C20.9483 141.909 19.9 139.848 19.9 137.7V102.789L52.6355 76.059C53.5605 75.2998 54.661 74.6972 55.8735 74.286C57.086 73.8748 58.3865 73.663 59.7 73.663C61.0135 73.663 62.314 73.8748 63.5265 74.286C64.739 74.6972 65.8395 75.2998 66.7645 76.059L152.334 145.8H29.85ZM179.1 137.7C179.091 138.699 178.854 139.687 178.404 140.616C178.176 141.011 177.91 141.39 177.607 141.75C177.341 142.093 177.042 142.418 176.712 142.722L123.479 99.387L132.236 92.259C133.16 91.4998 134.261 90.8972 135.473 90.486C136.686 90.0748 137.986 89.863 139.3 89.863C140.614 89.863 141.914 90.0748 143.127 90.486C144.339 90.8972 145.439 91.4998 146.364 92.259L179.1 118.989V137.7ZM179.1 96.066L160.394 81C154.7 76.6016 147.15 74.1497 139.3 74.1497C131.45 74.1497 123.9 76.6016 118.206 81L109.45 88.128L80.794 64.8C75.0998 60.4016 67.5495 57.9497 59.7 57.9497C51.8505 57.9497 44.3002 60.4016 38.606 64.8L19.9 79.866V24.3C19.9 22.1517 20.9483 20.0915 22.8143 18.5724C24.6803 17.0534 27.2111 16.2 29.85 16.2H169.15C171.789 16.2 174.32 17.0534 176.186 18.5724C178.052 20.0915 179.1 22.1517 179.1 24.3V96.066ZM114.425 32.4C111.473 32.4 108.588 33.1126 106.133 34.4476C103.679 35.7827 101.766 37.6803 100.636 39.9004C99.5065 42.1205 99.2109 44.5635 99.7868 46.9203C100.363 49.2772 101.784 51.4421 103.871 53.1413C105.959 54.8406 108.618 55.9977 111.513 56.4665C114.408 56.9354 117.409 56.6947 120.137 55.7751C122.864 54.8555 125.195 53.2982 126.835 51.3002C128.475 49.3021 129.35 46.953 129.35 44.55C129.35 41.3276 127.778 38.2372 124.979 35.9587C122.18 33.6801 118.383 32.4 114.425 32.4Z" fill="white" fill-opacity="0.08"/>
</svg>
