<svg width="27" height="30" viewBox="0 0 27 30" fill="none" xmlns="http://www.w3.org/2000/svg">
<path d="M16.3375 16.2633C16.3375 15.8694 16.1811 15.4916 15.9025 15.2131C15.624 14.9345 15.2462 14.778 14.8523 14.778H7.42615C7.03225 14.778 6.65447 14.9345 6.37594 15.2131C6.0974 15.4916 5.94092 15.8694 5.94092 16.2633C5.94092 16.6572 6.0974 17.035 6.37594 17.3135C6.65447 17.592 7.03225 17.7485 7.42615 17.7485H14.8523C15.2462 17.7485 15.624 17.592 15.9025 17.3135C16.1811 17.035 16.3375 16.6572 16.3375 16.2633ZM23.7637 23.6894C23.1328 23.6915 22.519 23.8944 22.0111 24.2687L19.412 23.0805L22.2488 21.7735C22.6971 22.0457 23.2096 22.1943 23.734 22.2042C24.3215 22.2042 24.8958 22.03 25.3843 21.7036C25.8728 21.3772 26.2535 20.9133 26.4783 20.3705C26.7032 19.8277 26.762 19.2304 26.6474 18.6542C26.5328 18.078 26.2498 17.5487 25.8344 17.1333C25.419 16.7179 24.8897 16.435 24.3135 16.3204C23.7373 16.2057 23.14 16.2646 22.5972 16.4894C22.0545 16.7142 21.5905 17.095 21.2641 17.5834C20.9377 18.0719 20.7635 18.6462 20.7635 19.2337L17.9564 20.5259C17.5718 20.253 17.1278 20.0756 16.661 20.0084C16.1942 19.9412 15.7182 19.986 15.2722 20.1393C14.8262 20.2925 14.4231 20.5498 14.0963 20.8897C13.7694 21.2297 13.5282 21.6426 13.3926 22.0942C13.257 22.5459 13.2308 23.0234 13.3163 23.4871C13.4018 23.9509 13.5965 24.3876 13.8843 24.7612C14.1721 25.1348 14.5447 25.4345 14.9713 25.6356C15.3979 25.8366 15.8662 25.9332 16.3375 25.9173C16.816 25.9175 17.2865 25.7948 17.704 25.5608L20.8229 27.0461C20.8887 27.6143 21.1172 28.1515 21.481 28.5931C21.8448 29.0347 22.3283 29.3618 22.8735 29.5352C23.4186 29.7085 24.0023 29.7208 24.5543 29.5704C25.1063 29.4201 25.6031 29.1136 25.9851 28.6877C26.367 28.2618 26.6179 27.7347 26.7075 27.1696C26.7971 26.6046 26.7216 26.0257 26.4902 25.5025C26.2587 24.9794 25.8811 24.5342 25.4027 24.2204C24.9243 23.9067 24.3655 23.7378 23.7934 23.734L23.7637 23.6894ZM11.8818 26.6599H4.45569C4.06179 26.6599 3.68401 26.5034 3.40548 26.2249C3.12694 25.9463 2.97046 25.5686 2.97046 25.1747V4.38143C2.97046 3.98752 3.12694 3.60975 3.40548 3.33121C3.68401 3.05268 4.06179 2.8962 4.45569 2.8962H11.8818V7.35189C11.8818 8.53362 12.3513 9.66694 13.1869 10.5025C14.0225 11.3381 15.1558 11.8076 16.3375 11.8076H20.7932C20.7932 12.2015 20.9497 12.5793 21.2282 12.8578C21.5068 13.1363 21.8846 13.2928 22.2785 13.2928C22.6724 13.2928 23.0501 13.1363 23.3287 12.8578C23.6072 12.5793 23.7637 12.2015 23.7637 11.8076V10.3224C23.7637 10.3224 23.7637 10.3224 23.7637 10.2332C23.7482 10.0968 23.7184 9.96238 23.6746 9.83223V9.69856C23.6032 9.54585 23.5079 9.40547 23.3924 9.28269L14.481 0.371308C14.3582 0.255781 14.2178 0.160525 14.0651 0.0891139C14.016 0.0805137 13.9657 0.0805137 13.9166 0.0891139C13.792 0.0438494 13.6623 0.0139245 13.5305 0H4.45569C3.27397 0 2.14065 0.469438 1.30504 1.30504C0.469438 2.14065 0 3.27397 0 4.45569V25.2489C0 26.4306 0.469438 27.564 1.30504 28.3996C2.14065 29.2352 3.27397 29.7046 4.45569 29.7046H11.8818C12.2758 29.7046 12.6535 29.5481 12.9321 29.2696C13.2106 28.9911 13.3671 28.6133 13.3671 28.2194C13.3671 27.8255 13.2106 27.4477 12.9321 27.1692C12.6535 26.8906 12.2758 26.7342 11.8818 26.7342V26.6599ZM14.8523 4.99038L18.6991 8.83712H16.3375C15.9436 8.83712 15.5659 8.68064 15.2873 8.40211C15.0088 8.12357 14.8523 7.7458 14.8523 7.35189V4.99038ZM7.42615 20.719C7.03225 20.719 6.65447 20.8755 6.37594 21.154C6.0974 21.4325 5.94092 21.8103 5.94092 22.2042C5.94092 22.5981 6.0974 22.9759 6.37594 23.2544C6.65447 23.533 7.03225 23.6894 7.42615 23.6894H8.91139C9.30529 23.6894 9.68307 23.533 9.9616 23.2544C10.2401 22.9759 10.3966 22.5981 10.3966 22.2042C10.3966 21.8103 10.2401 21.4325 9.9616 21.154C9.68307 20.8755 9.30529 20.719 8.91139 20.719H7.42615ZM7.42615 11.8076H8.91139C9.30529 11.8076 9.68307 11.6511 9.9616 11.3726C10.2401 11.094 10.3966 10.7163 10.3966 10.3224C10.3966 9.92845 10.2401 9.55067 9.9616 9.27214C9.68307 8.9936 9.30529 8.83712 8.91139 8.83712H7.42615C7.03225 8.83712 6.65447 8.9936 6.37594 9.27214C6.0974 9.55067 5.94092 9.92845 5.94092 10.3224C5.94092 10.7163 6.0974 11.094 6.37594 11.3726C6.65447 11.6511 7.03225 11.8076 7.42615 11.8076Z"/>
</svg>
