<svg width="24" height="24" viewBox="0 0 24 24" fill="none" xmlns="http://www.w3.org/2000/svg">
<path d="M22.2856 10.3999H13.3714V1.48571C13.3714 1.09167 13.2148 0.713778 12.9362 0.435154C12.6576 0.15653 12.2797 0 11.8857 0C11.4916 0 11.1137 0.15653 10.8351 0.435154C10.5565 0.713778 10.3999 1.09167 10.3999 1.48571V10.3999H1.48571C1.09167 10.3999 0.713778 10.5565 0.435154 10.8351C0.15653 11.1137 0 11.4916 0 11.8857C0 12.2797 0.15653 12.6576 0.435154 12.9362C0.713778 13.2148 1.09167 13.3714 1.48571 13.3714H10.3999V22.2856C10.3999 22.6796 10.5565 23.0575 10.8351 23.3361C11.1137 23.6148 11.4916 23.7713 11.8857 23.7713C12.2797 23.7713 12.6576 23.6148 12.9362 23.3361C13.2148 23.0575 13.3714 22.6796 13.3714 22.2856V13.3714H22.2856C22.6796 13.3714 23.0575 13.2148 23.3361 12.9362C23.6148 12.6576 23.7713 12.2797 23.7713 11.8857C23.7713 11.4916 23.6148 11.1137 23.3361 10.8351C23.0575 10.5565 22.6796 10.3999 22.2856 10.3999Z" fill="white"/>
</svg>
