<svg width="27" height="27" viewBox="0 0 27 27" fill="none" xmlns="http://www.w3.org/2000/svg">
<path d="M18.3377 14.3996C19.6551 13.3631 20.6168 11.9417 21.0888 10.3331C21.5608 8.72463 21.5197 7.00899 20.9713 5.42491C20.4228 3.84083 19.3943 2.46709 18.0287 1.49479C16.6631 0.522493 15.0285 0 13.3521 0C11.6758 0 10.0411 0.522493 8.67559 1.49479C7.31003 2.46709 6.28148 3.84083 5.73302 5.42491C5.18457 7.00899 5.14349 8.72463 5.61551 10.3331C6.08752 11.9417 7.04915 13.3631 8.36661 14.3996C6.10911 15.304 4.13936 16.8041 2.66736 18.74C1.19536 20.6758 0.27628 22.9749 0.00810565 25.392C-0.0113062 25.5684 0.00423082 25.747 0.0538294 25.9175C0.103428 26.0879 0.186117 26.247 0.297175 26.3855C0.521467 26.6652 0.847696 26.8444 1.2041 26.8836C1.5605 26.9228 1.91788 26.8188 2.19761 26.5945C2.47734 26.3702 2.65652 26.044 2.69573 25.6876C2.99081 23.0607 4.24337 20.6346 6.21412 18.8729C8.18486 17.1111 10.7356 16.1372 13.379 16.1372C16.0224 16.1372 18.5732 17.1111 20.5439 18.8729C22.5147 20.6346 23.7672 23.0607 24.0623 25.6876C24.0988 26.0178 24.2564 26.3228 24.5046 26.5436C24.7527 26.7645 25.0739 26.8856 25.4061 26.8836H25.5539C25.9062 26.8431 26.2282 26.6649 26.4497 26.3881C26.6712 26.1112 26.7743 25.758 26.7365 25.4054C26.4671 22.9814 25.543 20.6765 24.0635 18.7377C22.5839 16.7989 20.6046 15.2992 18.3377 14.3996ZM13.3521 13.4455C12.289 13.4455 11.2498 13.1302 10.3658 12.5396C9.48187 11.949 8.79291 11.1095 8.38607 10.1273C7.97923 9.14507 7.87278 8.06429 8.08018 7.02159C8.28759 5.9789 8.79953 5.02112 9.55127 4.26938C10.303 3.51764 11.2608 3.00569 12.3035 2.79829C13.3462 2.59089 14.427 2.69733 15.4092 3.10417C16.3914 3.51101 17.2309 4.19997 17.8215 5.08392C18.4121 5.96788 18.7274 7.00713 18.7274 8.07025C18.7274 9.49585 18.1611 10.8631 17.153 11.8711C16.145 12.8792 14.7777 13.4455 13.3521 13.4455Z"/>
</svg>
