<svg width="29" height="30" viewBox="0 0 29 30" fill="none" xmlns="http://www.w3.org/2000/svg">
<path d="M26.1041 8.97415V1.45213C26.1041 1.067 25.9512 0.697645 25.6788 0.425318C25.4065 0.152992 25.0371 0 24.652 0C24.2669 0 23.8975 0.152992 23.6252 0.425318C23.3529 0.697645 23.1999 1.067 23.1999 1.45213V8.97415C22.3589 9.2794 21.6323 9.83618 21.1188 10.5688C20.6053 11.3015 20.3298 12.1745 20.3298 13.0692C20.3298 13.9638 20.6053 14.8368 21.1188 15.5695C21.6323 16.3021 22.3589 16.8589 23.1999 17.1642V27.5904C23.1999 27.9756 23.3529 28.3449 23.6252 28.6172C23.8975 28.8896 24.2669 29.0426 24.652 29.0426C25.0371 29.0426 25.4065 28.8896 25.6788 28.6172C25.9512 28.3449 26.1041 27.9756 26.1041 27.5904V17.1642C26.9451 16.8589 27.6718 16.3021 28.1853 15.5695C28.6988 14.8368 28.9742 13.9638 28.9742 13.0692C28.9742 12.1745 28.6988 11.3015 28.1853 10.5688C27.6718 9.83618 26.9451 9.2794 26.1041 8.97415ZM24.652 14.5213C24.3648 14.5213 24.0841 14.4361 23.8453 14.2766C23.6065 14.117 23.4203 13.8902 23.3104 13.6249C23.2005 13.3595 23.1718 13.0675 23.2278 12.7859C23.2838 12.5042 23.4221 12.2454 23.6252 12.0423C23.8283 11.8393 24.087 11.701 24.3687 11.6449C24.6504 11.5889 24.9424 11.6177 25.2077 11.7276C25.4731 11.8375 25.6999 12.0236 25.8594 12.2624C26.019 12.5012 26.1041 12.7819 26.1041 13.0692C26.1041 13.4543 25.9512 13.8236 25.6788 14.096C25.4065 14.3683 25.0371 14.5213 24.652 14.5213ZM15.9392 17.6869V1.45213C15.9392 1.067 15.7863 0.697645 15.5139 0.425318C15.2416 0.152992 14.8722 0 14.4871 0C14.102 0 13.7326 0.152992 13.4603 0.425318C13.188 0.697645 13.035 1.067 13.035 1.45213V17.6869C12.194 17.9922 11.4674 18.5489 10.9539 19.2816C10.4404 20.0142 10.1649 20.8872 10.1649 21.7819C10.1649 22.6766 10.4404 23.5496 10.9539 24.2822C11.4674 25.0149 12.194 25.5717 13.035 25.8769V27.5904C13.035 27.9756 13.188 28.3449 13.4603 28.6172C13.7326 28.8896 14.102 29.0426 14.4871 29.0426C14.8722 29.0426 15.2416 28.8896 15.5139 28.6172C15.7863 28.3449 15.9392 27.9756 15.9392 27.5904V25.8769C16.7803 25.5717 17.5069 25.0149 18.0204 24.2822C18.5339 23.5496 18.8093 22.6766 18.8093 21.7819C18.8093 20.8872 18.5339 20.0142 18.0204 19.2816C17.5069 18.5489 16.7803 17.9922 15.9392 17.6869ZM14.4871 23.234C14.1999 23.234 13.9192 23.1489 13.6804 22.9893C13.4416 22.8298 13.2554 22.603 13.1455 22.3376C13.0356 22.0723 13.0069 21.7803 13.0629 21.4986C13.1189 21.2169 13.2572 20.9582 13.4603 20.7551C13.6634 20.552 13.9221 20.4137 14.2038 20.3577C14.4855 20.3017 14.7775 20.3304 15.0428 20.4403C15.3082 20.5502 15.535 20.7364 15.6945 20.9752C15.8541 21.214 15.9392 21.4947 15.9392 21.7819C15.9392 22.167 15.7863 22.5364 15.5139 22.8087C15.2416 23.0811 14.8722 23.234 14.4871 23.234ZM5.77435 6.06989V1.45213C5.77435 1.067 5.62136 0.697645 5.34903 0.425318C5.07671 0.152992 4.70735 0 4.32223 0C3.9371 0 3.56774 0.152992 3.29542 0.425318C3.02309 0.697645 2.8701 1.067 2.8701 1.45213V6.06989C2.02909 6.37514 1.30247 6.93192 0.788968 7.66457C0.275468 8.39722 0 9.27021 0 10.1649C0 11.0596 0.275468 11.9326 0.788968 12.6652C1.30247 13.3979 2.02909 13.9547 2.8701 14.2599V27.5904C2.8701 27.9756 3.02309 28.3449 3.29542 28.6172C3.56774 28.8896 3.9371 29.0426 4.32223 29.0426C4.70735 29.0426 5.07671 28.8896 5.34903 28.6172C5.62136 28.3449 5.77435 27.9756 5.77435 27.5904V14.2599C6.61536 13.9547 7.34198 13.3979 7.85548 12.6652C8.36898 11.9326 8.64445 11.0596 8.64445 10.1649C8.64445 9.27021 8.36898 8.39722 7.85548 7.66457C7.34198 6.93192 6.61536 6.37514 5.77435 6.06989ZM4.32223 11.617C4.03502 11.617 3.75427 11.5319 3.51547 11.3723C3.27666 11.2127 3.09054 10.9859 2.98063 10.7206C2.87073 10.4553 2.84197 10.1633 2.898 9.8816C2.95403 9.59991 3.09233 9.34117 3.29542 9.13809C3.4985 8.935 3.75724 8.7967 4.03893 8.74067C4.32061 8.68464 4.61259 8.7134 4.87793 8.82331C5.14327 8.93321 5.37006 9.11934 5.52963 9.35814C5.68919 9.59694 5.77435 9.87769 5.77435 10.1649C5.77435 10.55 5.62136 10.9194 5.34903 11.1917C5.07671 11.464 4.70735 11.617 4.32223 11.617Z"/>
</svg>
