<svg width="35" height="33" viewBox="0 0 35 33" fill="none" xmlns="http://www.w3.org/2000/svg">
<path d="M27.2342 32.9999C26.9502 32.9999 26.6704 32.9315 26.4191 32.8006L17.4999 28.1645L8.58078 32.8006C8.29181 32.9509 7.96606 33.0183 7.64036 32.9951C7.31467 32.9719 7.00203 32.8591 6.7378 32.6695C6.47358 32.4798 6.26831 32.2208 6.14521 31.9218C6.02211 31.6228 5.9861 31.2957 6.04124 30.9775L7.74508 21.158L0.528115 14.2039C0.294354 13.9786 0.12904 13.6931 0.0508754 13.3797C-0.0272896 13.0663 -0.0151869 12.7375 0.0858147 12.4306C0.186816 12.1237 0.372686 11.8508 0.622397 11.6429C0.872109 11.4349 1.1757 11.3002 1.49882 11.254L11.4707 9.82129L15.9311 0.887067C16.0919 0.616951 16.3212 0.393017 16.5963 0.237431C16.8715 0.0818442 17.183 0 17.5 0C17.817 0 18.1285 0.0818442 18.4037 0.237431C18.6788 0.393017 18.9081 0.616951 19.0689 0.887067L23.5293 9.82129L33.5012 11.254C33.8243 11.3002 34.1279 11.4349 34.3776 11.6429C34.6273 11.8508 34.8132 12.1237 34.9142 12.4306C35.0152 12.7375 35.0273 13.0663 34.9491 13.3797C34.871 13.6931 34.7056 13.9786 34.4719 14.2039L27.2549 21.158L28.9588 30.9775C29.0017 31.2258 28.9894 31.4804 28.9226 31.7234C28.8557 31.9665 28.736 32.1922 28.5718 32.3848C28.4076 32.5774 28.2029 32.7322 27.9719 32.8385C27.7409 32.9447 27.489 32.9998 27.2342 32.9999Z" fill="url(#paint0_linear_8_21)"/>
<defs>
<linearGradient id="paint0_linear_8_21" x1="23.7618" y1="-6.06053" x2="11.5956" y2="47.4242" gradientUnits="userSpaceOnUse">
<stop stop-color="#6A0FFF"/>
<stop offset="1" stop-color="#5C0FFF" stop-opacity="0.39"/>
</linearGradient>
</defs>
</svg>
