<svg width="27" height="25" viewBox="0 0 27 25" fill="none" xmlns="http://www.w3.org/2000/svg">
<path d="M22.7325 5.34883H21.3953V4.01162C21.3953 2.94767 20.9727 1.9273 20.2203 1.17498C19.468 0.422652 18.4476 0 17.3837 0H4.01162C2.94767 0 1.9273 0.422652 1.17498 1.17498C0.422652 1.9273 0 2.94767 0 4.01162V20.0581C0 21.1221 0.422652 22.1424 1.17498 22.8948C1.9273 23.6471 2.94767 24.0697 4.01162 24.0697H22.7325C23.7965 24.0697 24.8168 23.6471 25.5692 22.8948C26.3215 22.1424 26.7441 21.1221 26.7441 20.0581V9.36045C26.7441 8.2965 26.3215 7.27613 25.5692 6.52381C24.8168 5.77148 23.7965 5.34883 22.7325 5.34883ZM4.01162 2.67441H17.3837C17.7383 2.67441 18.0785 2.8153 18.3292 3.06607C18.58 3.31685 18.7209 3.65697 18.7209 4.01162V5.34883H4.01162C3.65697 5.34883 3.31685 5.20795 3.06607 4.95717C2.8153 4.7064 2.67441 4.36627 2.67441 4.01162C2.67441 3.65697 2.8153 3.31685 3.06607 3.06607C3.31685 2.8153 3.65697 2.67441 4.01162 2.67441ZM24.0697 16.0465H22.7325C22.3779 16.0465 22.0378 15.9056 21.787 15.6548C21.5362 15.4041 21.3953 15.0639 21.3953 14.7093C21.3953 14.3546 21.5362 14.0145 21.787 13.7637C22.0378 13.513 22.3779 13.3721 22.7325 13.3721H24.0697V16.0465ZM24.0697 10.6977H22.7325C21.6686 10.6977 20.6482 11.1203 19.8959 11.8726C19.1436 12.625 18.7209 13.6453 18.7209 14.7093C18.7209 15.7732 19.1436 16.7936 19.8959 17.5459C20.6482 18.2983 21.6686 18.7209 22.7325 18.7209H24.0697V20.0581C24.0697 20.4128 23.9289 20.7529 23.6781 21.0037C23.4273 21.2544 23.0872 21.3953 22.7325 21.3953H4.01162C3.65697 21.3953 3.31685 21.2544 3.06607 21.0037C2.8153 20.7529 2.67441 20.4128 2.67441 20.0581V7.79592C3.10402 7.94705 3.55621 8.02392 4.01162 8.02324H22.7325C23.0872 8.02324 23.4273 8.16413 23.6781 8.4149C23.9289 8.66568 24.0697 9.0058 24.0697 9.36045V10.6977Z"/>
</svg>
